<svg width="8" height="8" viewBox="0 0 8 8" fill="none" xmlns="http://www.w3.org/2000/svg">
    <g clip-path="url(#clip0_1182_222)">
        <path fill-rule="evenodd" clip-rule="evenodd"
              d="M5.32296 0.322959C5.34618 0.299677 5.37377 0.281206 5.40414 0.268602C5.43451 0.255999 5.46707 0.249512 5.49996 0.249512C5.53284 0.249512 5.5654 0.255999 5.59577 0.268602C5.62615 0.281206 5.65373 0.299677 5.67696 0.322959L7.67696 2.32296C7.70024 2.34618 7.71871 2.37377 7.73131 2.40414C7.74392 2.43451 7.7504 2.46707 7.7504 2.49996C7.7504 2.53284 7.74392 2.5654 7.73131 2.59578C7.71871 2.62615 7.70024 2.65374 7.67696 2.67696L6.72596 3.62796L6.31146 5.28446C6.27994 5.41059 6.21617 5.52636 6.12641 5.62042C6.03665 5.71447 5.92398 5.78358 5.79946 5.82096L0.626953 7.37296L2.17895 2.19996C2.21636 2.07559 2.28543 1.96306 2.37938 1.8734C2.47334 1.78374 2.58897 1.72001 2.71495 1.68846L4.37146 1.27446L5.32296 0.322959ZM4.42296 1.77696L2.83645 2.17346C2.79434 2.18397 2.75569 2.20526 2.7243 2.23525C2.69292 2.26523 2.66988 2.30287 2.65745 2.34446L1.37245 6.62696L5.65596 5.34196C5.6973 5.32943 5.73469 5.3064 5.76449 5.27512C5.79428 5.24383 5.81546 5.20536 5.82596 5.16346L6.22296 3.57646L4.42296 1.77646V1.77696Z"
              fill="#148E87"/>
        <path fill-rule="evenodd" clip-rule="evenodd"
              d="M1.41605 6.614L4.00005 4.5C4.09894 4.5 4.19561 4.47068 4.27783 4.41574C4.36006 4.36079 4.42414 4.28271 4.46199 4.19134C4.49983 4.09998 4.50973 3.99945 4.49044 3.90246C4.47115 3.80546 4.42353 3.71637 4.3536 3.64645C4.28368 3.57652 4.19458 3.5289 4.09759 3.50961C4.0006 3.49031 3.90007 3.50022 3.80871 3.53806C3.71734 3.5759 3.63925 3.63999 3.58431 3.72222C3.52937 3.80444 3.50005 3.90111 3.50005 4L1.38605 6.584L1.37305 6.627L1.41605 6.614Z"
              fill="#148E87"/>
    </g>
    <defs>
        <clipPath id="clip0_1182_222">
            <rect width="8" height="8" fill="white"/>
        </clipPath>
    </defs>
</svg>
